<svg width="92" height="92" viewBox="0 0 92 92" fill="none" xmlns="http://www.w3.org/2000/svg">
<circle cx="46" cy="46" r="46" fill="#FBFBF9"/>
<path d="M58.736 48.416C58.736 51.616 61.312 54.16 64.512 54.16C65.936 54.16 67.312 53.664 68.4 52.608C68.512 52.496 68.544 52.288 68.416 52.176L67.68 51.456C67.584 51.376 67.44 51.36 67.296 51.472C66.528 52.064 65.712 52.528 64.544 52.528C62.256 52.528 60.512 50.624 60.512 48.384C60.512 46.144 62.24 44.224 64.528 44.224C65.52 44.224 66.544 44.64 67.296 45.296C67.44 45.44 67.584 45.44 67.696 45.296L68.4 44.576C68.528 44.448 68.528 44.256 68.384 44.128C67.296 43.184 66.128 42.64 64.512 42.64C61.312 42.64 58.736 45.216 58.736 48.416Z" fill="#2F2E2C"/>
<path d="M21.736 48.416C21.736 51.616 24.28 54.16 27.48 54.16C27.768 54.16 28.12 54.144 28.424 54.096L30.152 57.008C30.216 57.12 30.344 57.168 30.408 57.168H31.656C31.912 57.168 32.056 56.912 31.912 56.688L29.976 53.616C31.912 52.656 33.24 50.688 33.24 48.416C33.24 45.216 30.68 42.64 27.48 42.64C24.28 42.64 21.736 45.216 21.736 48.416ZM23.336 48.416C23.336 46.144 25.208 44.24 27.48 44.24C29.768 44.24 31.64 46.144 31.64 48.416C31.64 50.704 29.768 52.56 27.48 52.56C25.208 52.56 23.336 50.704 23.336 48.416Z" fill="#2F2E2C"/>
<path d="M48.8802 63.5134C48.8802 63.5134 48.6126 64.3011 47.5912 63.8327L51.8403 16.4178C51.8403 16.4178 54.8072 15.0939 54.8052 17.9419L48.8802 63.5134Z" fill="#292826"/>
<path d="M43.8818 71.4126C43.8818 71.4126 44.1309 72.2053 45.1642 71.76L42.0278 24.2591C42.0278 24.2591 39.095 22.8674 39.0285 25.7143L43.8818 71.4126Z" fill="#292826"/>
</svg>
